<svg xmlns="http://www.w3.org/2000/svg" width="128" height="128" viewBox="0 0 128 128">
  <title>BALLOONS</title>
  <g>
    <path d="M31.952,77.744a18.163,18.163,0,0,1-4.1,0H27.78L24.72,84.2H35.086l-3.061-6.455Z" fill="#80d261"/>
    <path d="M66.049,64.566a18,18,0,0,1-4.1,0h-.073l-3.061,6.456H69.183l-3.061-6.456Z" fill="#fcdc59"/>
    <path d="M100.146,77.744a18.155,18.155,0,0,1-4.1,0h-.073L92.914,84.2H103.28l-3.06-6.455Z" fill="#eb5569"/>
    <ellipse cx="98.097" cy="48.673" rx="23.596" ry="29.188" fill="#f07281"/>
    <ellipse cx="29.903" cy="48.673" rx="23.596" ry="29.188" fill="#97da7b"/>
    <ellipse cx="64" cy="35.495" rx="23.596" ry="29.188" fill="#fee97d"/>
    <g>
      <path d="M77.846,35.495a25.658,25.658,0,0,1-.23,3.434,1.75,1.75,0,0,0,1.5,1.968,1.723,1.723,0,0,0,.236.016A1.751,1.751,0,0,0,81.085,39.4a29.3,29.3,0,0,0,.261-3.9c0-6.847-2.477-13.548-6.625-17.924a1.75,1.75,0,0,0-2.541,2.408C75.727,23.721,77.846,29.521,77.846,35.495Z"/>
      <path d="M123.443,48.672a38.325,38.325,0,0,0-.206-3.964,1.749,1.749,0,1,0-3.48.362,34.953,34.953,0,0,1,.186,3.6c0,15.13-9.8,27.438-21.845,27.438-8.322,0-15.892-5.966-19.572-15.286,6.536-5.6,10.82-14.863,10.82-25.329A36.852,36.852,0,0,0,87.7,24.556,18.385,18.385,0,0,1,98.1,21.235a18.737,18.737,0,0,1,12.121,4.62,1.75,1.75,0,1,0,2.252-2.679A22.185,22.185,0,0,0,98.1,17.735a21.735,21.735,0,0,0-11.637,3.452C82.223,11.313,73.748,4.557,64,4.557s-18.223,6.756-22.462,16.63A21.732,21.732,0,0,0,29.9,17.735c-13.975,0-25.345,13.878-25.345,30.937a37.425,37.425,0,0,0,1.032,8.775,1.75,1.75,0,0,0,1.7,1.34,1.776,1.776,0,0,0,.412-.049,1.75,1.75,0,0,0,1.29-2.112,33.934,33.934,0,0,1-.934-7.954c0-15.129,9.8-27.437,21.845-27.437A18.379,18.379,0,0,1,40.3,24.557a36.846,36.846,0,0,0-1.642,10.938c0,10.466,4.284,19.728,10.819,25.329C45.794,70.144,38.224,76.11,29.9,76.11c-6.917,0-13.5-4.2-17.615-11.225a1.75,1.75,0,0,0-3.021,1.768C13.092,73.192,18.847,77.6,25.215,79.07l-2.076,4.38a1.749,1.749,0,0,0,1.581,2.5h3.45a97.684,97.684,0,0,0,7.578,36.485,1.75,1.75,0,0,0,3.172-1.481,96.131,96.131,0,0,1-7.249-35h3.415a1.75,1.75,0,0,0,1.581-2.5l-2.081-4.39c7.6-1.735,14.188-7.608,17.8-16.08a22.282,22.282,0,0,0,6.925,2.913l-2.077,4.378a1.75,1.75,0,0,0,1.581,2.5H62.25v48.922a1.75,1.75,0,0,0,3.5,0V72.771h3.434a1.75,1.75,0,0,0,1.581-2.5l-2.077-4.378a22.282,22.282,0,0,0,6.925-2.913c3.613,8.472,10.2,14.345,17.8,16.08l-2.081,4.39a1.749,1.749,0,0,0,1.581,2.5h3.415a96.131,96.131,0,0,1-7.249,35,1.75,1.75,0,0,0,3.172,1.481,97.672,97.672,0,0,0,7.577-36.485h3.451a1.749,1.749,0,0,0,1.581-2.5l-2.076-4.379C114.528,76.379,123.443,63.776,123.443,48.672ZM32.319,82.449H27.486l1.364-2.877c.35.017.7.038,1.052.038s.7-.029,1.049-.047Zm9.835-46.954c0-15.129,9.8-27.438,21.846-27.438S85.846,20.366,85.846,35.495,76.046,62.933,64,62.933,42.154,50.624,42.154,35.495ZM66.417,69.271H61.583L62.945,66.4c.35.018.7.033,1.055.033s.7-.015,1.055-.033Zm34.1,13.178H95.681l1.368-2.886c.349.018.7.047,1.049.047s.7-.015,1.054-.032Z"/>
      <path d="M117.857,36.973a1.75,1.75,0,1,0,3.276-1.234,33.129,33.129,0,0,0-2.1-4.521,1.75,1.75,0,1,0-3.053,1.71A29.7,29.7,0,0,1,117.857,36.973Z"/>
    </g>
  </g>
</svg>
