<svg xmlns="http://www.w3.org/2000/svg" width="128" height="128" viewBox="0 0 128 128">
  <title>BUILDING</title>
  <g>
    <g>
      <path d="M114.187,120.063a1.751,1.751,0,0,1-1.75-1.75V103.689a1.75,1.75,0,0,1,3.5,0v14.624A1.75,1.75,0,0,1,114.187,120.063Z" fill="#e1e6f0"/>
      <path d="M13.813,120.063a1.75,1.75,0,0,1-1.75-1.75V103.689a1.75,1.75,0,0,1,3.5,0v14.624A1.751,1.751,0,0,1,13.813,120.063Z" fill="#e1e6f0"/>
      <path d="M20.141,81.371a6.469,6.469,0,1,0-12.657,0,12.063,12.063,0,1,0,12.657,0Z" fill="#4db6ac"/>
      <path d="M120.516,81.371a6.469,6.469,0,1,0-12.657,0,12.063,12.063,0,1,0,12.657,0Z" fill="#4db6ac"/>
      <rect x="1.75" y="118.313" width="124.5" height="8" fill="#4d5e80"/>
      <rect x="35.628" y="16.688" width="56.744" height="101.625" fill="#f3f5f9"/>
      <rect x="44.5" y="1.747" width="39" height="14.94" fill="#ffdf40"/>
      <rect x="56.688" y="97.938" width="14.625" height="20.375" fill="#e1e6f0"/>
      <rect x="43.628" y="24.688" width="8.372" height="10.368" fill="#e1e6f0"/>
      <rect x="59.814" y="24.688" width="8.372" height="10.368" fill="#e1e6f0"/>
      <rect x="76" y="24.688" width="8.372" height="10.368" fill="#e1e6f0"/>
      <rect x="43.628" y="42.979" width="8.372" height="10.368" fill="#e1e6f0"/>
      <rect x="59.814" y="42.979" width="8.372" height="10.368" fill="#e1e6f0"/>
      <rect x="76" y="42.979" width="8.372" height="10.368" fill="#e1e6f0"/>
      <rect x="43.628" y="61.271" width="8.372" height="10.368" fill="#e1e6f0"/>
      <rect x="59.814" y="61.271" width="8.372" height="10.368" fill="#e1e6f0"/>
      <rect x="76" y="61.271" width="8.372" height="10.368" fill="#e1e6f0"/>
      <rect x="43.628" y="79.563" width="8.372" height="10.368" fill="#e1e6f0"/>
      <rect x="59.814" y="79.563" width="8.372" height="10.368" fill="#e1e6f0"/>
      <rect x="76" y="79.563" width="8.372" height="10.368" fill="#e1e6f0"/>
    </g>
    <g>
      <path d="M126.25,116.563H115.937V105.315a13.794,13.794,0,0,0,6.454-24.788c.01-.165.015-.331.015-.5a8.219,8.219,0,0,0-16.437,0c0,.165.005.331.015.5a13.794,13.794,0,0,0,6.453,24.788v11.248H94.122V58.085a1.75,1.75,0,1,0-3.5,0v58.478H73.063V97.938a1.75,1.75,0,0,0-1.75-1.75H56.688a1.749,1.749,0,0,0-1.75,1.75v18.625H37.378V18.438H90.622V29.523a1.75,1.75,0,0,0,3.5,0V16.688a1.75,1.75,0,0,0-1.75-1.75H85.25V1.747A1.75,1.75,0,0,0,83.5,0h-39a1.75,1.75,0,0,0-1.75,1.75V14.938H35.628a1.75,1.75,0,0,0-1.75,1.75v99.875H15.563V105.315a13.795,13.795,0,0,0,5.5-25.433,1.75,1.75,0,1,0-1.841,2.976,10.313,10.313,0,1,1-10.815,0,1.749,1.749,0,0,0,.791-1.85,4.719,4.719,0,0,1,4.617-5.695,1.75,1.75,0,1,0,0-3.5,8.227,8.227,0,0,0-8.219,8.218c0,.165,0,.331.015.5a13.794,13.794,0,0,0,6.454,24.788v11.248H1.75A1.75,1.75,0,0,0,0,118.313v8a1.751,1.751,0,0,0,1.75,1.75h124.5a1.751,1.751,0,0,0,1.75-1.75v-8A1.75,1.75,0,0,0,126.25,116.563ZM103.875,91.626a10.254,10.254,0,0,1,4.905-8.768,1.749,1.749,0,0,0,.791-1.85,4.719,4.719,0,1,1,9.233,0,1.749,1.749,0,0,0,.791,1.85,10.308,10.308,0,1,1-15.72,8.768ZM46.25,3.5h35.5V14.938H46.25ZM58.438,99.688H69.563v16.875H58.438ZM124.5,124.563H3.5v-4.5h121Z"/>
      <path d="M92.372,38.141a1.75,1.75,0,0,0-1.75,1.75v7.826a1.75,1.75,0,0,0,3.5,0V39.891A1.75,1.75,0,0,0,92.372,38.141Z"/>
      <path d="M53.75,24.688A1.75,1.75,0,0,0,52,22.938H43.628a1.75,1.75,0,0,0-1.75,1.75V35.056a1.751,1.751,0,0,0,1.75,1.75H52a1.751,1.751,0,0,0,1.75-1.75Zm-3.5,8.618H45.378V26.438H50.25Z"/>
      <path d="M69.936,24.688a1.75,1.75,0,0,0-1.75-1.75H59.814a1.75,1.75,0,0,0-1.75,1.75V35.056a1.751,1.751,0,0,0,1.75,1.75h8.372a1.751,1.751,0,0,0,1.75-1.75Zm-3.5,8.618H61.564V26.438h4.872Z"/>
      <path d="M86.122,24.688a1.75,1.75,0,0,0-1.75-1.75H76a1.75,1.75,0,0,0-1.75,1.75V35.056A1.751,1.751,0,0,0,76,36.806h8.372a1.751,1.751,0,0,0,1.75-1.75Zm-3.5,8.618H77.75V26.438h4.872Z"/>
      <path d="M53.75,42.979A1.751,1.751,0,0,0,52,41.229H43.628a1.751,1.751,0,0,0-1.75,1.75V53.348a1.75,1.75,0,0,0,1.75,1.75H52a1.75,1.75,0,0,0,1.75-1.75ZM50.25,51.6H45.378V44.729H50.25Z"/>
      <path d="M69.936,42.979a1.751,1.751,0,0,0-1.75-1.75H59.814a1.751,1.751,0,0,0-1.75,1.75V53.348a1.75,1.75,0,0,0,1.75,1.75h8.372a1.75,1.75,0,0,0,1.75-1.75Zm-3.5,8.619H61.564V44.729h4.872Z"/>
      <path d="M86.122,42.979a1.751,1.751,0,0,0-1.75-1.75H76a1.751,1.751,0,0,0-1.75,1.75V53.348A1.75,1.75,0,0,0,76,55.1h8.372a1.75,1.75,0,0,0,1.75-1.75Zm-3.5,8.619H77.75V44.729h4.872Z"/>
      <path d="M53.75,61.272A1.75,1.75,0,0,0,52,59.522H43.628a1.75,1.75,0,0,0-1.75,1.75V71.64a1.751,1.751,0,0,0,1.75,1.75H52a1.751,1.751,0,0,0,1.75-1.75Zm-3.5,8.618H45.378V63.022H50.25Z"/>
      <path d="M69.936,61.272a1.75,1.75,0,0,0-1.75-1.75H59.814a1.75,1.75,0,0,0-1.75,1.75V71.64a1.751,1.751,0,0,0,1.75,1.75h8.372a1.751,1.751,0,0,0,1.75-1.75Zm-3.5,8.618H61.564V63.022h4.872Z"/>
      <path d="M86.122,61.272a1.75,1.75,0,0,0-1.75-1.75H76a1.75,1.75,0,0,0-1.75,1.75V71.64A1.751,1.751,0,0,0,76,73.39h8.372a1.751,1.751,0,0,0,1.75-1.75Zm-3.5,8.618H77.75V63.022h4.872Z"/>
      <path d="M52,77.814H43.628a1.75,1.75,0,0,0-1.75,1.75V89.931a1.751,1.751,0,0,0,1.75,1.75H52a1.751,1.751,0,0,0,1.75-1.75V79.564A1.75,1.75,0,0,0,52,77.814ZM50.25,88.181H45.378V81.314H50.25Z"/>
      <path d="M68.186,77.814H59.814a1.75,1.75,0,0,0-1.75,1.75V89.931a1.751,1.751,0,0,0,1.75,1.75h8.372a1.751,1.751,0,0,0,1.75-1.75V79.564A1.75,1.75,0,0,0,68.186,77.814Zm-1.75,10.367H61.564V81.314h4.872Z"/>
      <path d="M84.372,77.814H76a1.75,1.75,0,0,0-1.75,1.75V89.931A1.751,1.751,0,0,0,76,91.681h8.372a1.751,1.751,0,0,0,1.75-1.75V79.564A1.75,1.75,0,0,0,84.372,77.814Zm-1.75,10.367H77.75V81.314h4.872Z"/>
    </g>
  </g>
</svg>
